# xmcd
#
# Track frame offsets: 
#        183
#        10168
#        17585
#        21848
#        43395
#        66418
#        90870
#        146930
#        161178
#        187845
#        225863
#        252503
#        287140
#
# Disc length: 4125 seconds
#
# Revision: 5
# Processed by: cddbd v1.5.2PL0 Copyright (c) Steve Scherf et al.
# Submitted via: ExactAudioCopyFreeDBPlugin 1.0
#
DISCID=ad101b0d
DTITLE=J.J. Johnson - Let's Hang Out
DYEAR=1993
DGENRE=Jazz
TTITLE0=First movement: Ode to G. T.
TTITLE1=Second movement: Let's Hang Out
TTITLE2=Third movement: Love You Nana
TTITLE3=Fourth movement: Reunion
TTITLE4=Stir-Fry
TTITLE5=It Never Entered My Mind
TTITLE6=Kenya
TTITLE7=Beautiful Love
TTITLE8=It's You Or No One
TTITLE9=May I Have Dis Dance
TTITLE10=Syntax
TTITLE11=Hasten Jason
TTITLE12=I Got It Bad (And That Ain't Good)
EXTD=YEAR: 1993
EXTT0=
EXTT1=
EXTT2=
EXTT3=
EXTT4=
EXTT5=
EXTT6=
EXTT7=
EXTT8=
EXTT9=
EXTT10=
EXTT11=
EXTT12=
PLAYORDER=
